<?xml version="1.0" encoding="UTF-8" standalone="no"?>
<!DOCTYPE svg PUBLIC "-//W3C//DTD SVG 1.1//EN" "http://www.w3.org/Graphics/SVG/1.1/DTD/svg11.dtd">
<!-- Created with Vectornator (http://vectornator.io/) -->
<svg height="100%" stroke-miterlimit="10" style="fill-rule:nonzero;clip-rule:evenodd;stroke-linecap:round;stroke-linejoin:round;" version="1.1" viewBox="332.788 2625.79 1087.65 327.841" width="100%" xml:space="preserve" xmlns="http://www.w3.org/2000/svg" xmlns:vectornator="http://vectornator.io" xmlns:xlink="http://www.w3.org/1999/xlink">
<defs>
<path d="M332.788 2774.63C332.788 2692.43 399.424 2625.79 481.625 2625.79C563.826 2625.79 630.463 2692.43 630.463 2774.63C630.463 2856.83 563.826 2923.47 481.625 2923.47C399.424 2923.47 332.788 2856.83 332.788 2774.63Z" id="Fill"/>
</defs>
<g id="Layer" vectornator:layerName="Layer">
<g opacity="1" vectornator:layerName="Group 40">
<g opacity="1" vectornator:layerName="Group 15">
<g opacity="1" vectornator:layerName="Group 1">
<g opacity="1" vectornator:layerName="Logo Gradient">
<text fill="#01a2ad" font-family="FFFAcidGrotesk-Medium" font-size="306.595" opacity="1" stroke="none" text-anchor="start" transform="matrix(1 0 0 1 679.702 2575.29)" vectornator:layerName="Enerlex Text" vectornator:width="1229.95" x="0" y="0">
<tspan textLength="748.704" x="0" y="317.02"><![CDATA[Neyo]]></tspan>
</text>
</g>
</g>
</g>
<g opacity="1" vectornator:layerName="Logo geometrique 1">
<use fill="#001534" fill-rule="nonzero" opacity="1" stroke="none" vectornator:layerName="Oval 1" xlink:href="#Fill"/>
<clipPath clip-rule="nonzero" id="ClipPath">
<use xlink:href="#Fill"/>
</clipPath>
<g clip-path="url(#ClipPath)">
<path d="M565.559 2880.88L566.29 2911.4L566.119 2919.2C566.119 2919.2 553.644 2919.45 542.072 2919.29C530.5 2919.12 520.547 2919.08 520.547 2919.08L501.292 2898.24L523.037 2874.63L557.782 2874.59L565.559 2880.88Z" fill="#01a2ad" fill-rule="nonzero" opacity="1" stroke="none" vectornator:layerName="Rectangle 25"/>
<path d="M396.355 2669.42L395.855 2638.28L396.085 2630.32C396.085 2630.32 408.583 2630.17 420.173 2630.43C431.763 2630.7 441.733 2630.82 441.733 2630.82L460.861 2652.24L438.9 2676.14L404.096 2675.89L396.355 2669.42Z" fill="#01a2ad" fill-rule="nonzero" opacity="1" stroke="none" vectornator:layerName="Rectangle 28"/>
<path d="M588.398 2857.92L617.773 2858.18L625.271 2857.89C625.271 2857.89 625.333 2845.39 625.007 2833.8C624.681 2822.21 624.496 2812.24 624.496 2812.24L604.166 2793.28L581.775 2815.43L582.241 2850.23L588.398 2857.92Z" fill="#01a2ad" fill-rule="nonzero" opacity="1" stroke="none" vectornator:layerName="Rectangle 29"/>
<path d="M374.709 2692.26L345.335 2691.93L337.837 2692.21C337.837 2692.21 337.745 2704.71 338.044 2716.29C338.343 2727.88 338.504 2737.85 338.504 2737.85L358.79 2756.86L381.233 2734.77L380.849 2699.97L374.709 2692.26Z" fill="#01a2ad" fill-rule="nonzero" opacity="1" stroke="none" vectornator:layerName="Rectangle 30"/>
<path d="M395.825 2881.27L395.678 2910.64L395.998 2918.14C395.998 2918.14 408.497 2918.15 420.084 2917.78C431.67 2917.41 441.637 2917.19 441.637 2917.19L460.522 2896.79L438.292 2874.48L403.493 2875.08L395.825 2881.27Z" fill="#01a2ad" fill-rule="nonzero" opacity="1" stroke="none" vectornator:layerName="Rectangle 32"/>
<path d="M564.784 2669.04L565.111 2635.52L564.842 2626.97C564.842 2626.97 552.542 2626.89 541.137 2627.25C529.732 2627.62 519.922 2627.82 519.922 2627.82L501.211 2651.01L522.95 2676.57L557.2 2676.06L564.784 2669.04Z" fill="#01a2ad" fill-rule="nonzero" opacity="1" stroke="none" vectornator:layerName="Rectangle 31"/>
<path d="M371.293 2858.38L340.76 2858.64L332.966 2858.35C332.966 2858.35 332.906 2845.87 333.249 2834.31C333.592 2822.74 333.787 2812.79 333.787 2812.79L354.926 2793.86L378.193 2815.96L377.696 2850.7L371.293 2858.38Z" fill="#01a2ad" fill-rule="nonzero" opacity="1" stroke="none" vectornator:layerName="Rectangle 26"/>
<path d="M588.568 2691.98L619.098 2691.45L626.894 2691.68C626.894 2691.68 627.061 2704.16 626.818 2715.73C626.574 2727.3 626.464 2737.25 626.464 2737.25L605.488 2756.36L582.033 2734.46L582.231 2699.71L588.568 2691.98Z" fill="#01a2ad" fill-rule="nonzero" opacity="1" stroke="none" vectornator:layerName="Rectangle 27"/>
<path d="M447.812 2849.78L447.919 2813.53L473.387 2824.09L447.812 2849.78Z" fill="#fa9100" fill-rule="nonzero" opacity="1" stroke="none" vectornator:layerName="Polygon 1"/>
<path d="M462.732 2813.79L447.919 2813.53L473.387 2824.09L462.732 2813.79Z" fill="#fa9100" fill-rule="nonzero" opacity="1" stroke="none" vectornator:layerName="Polygon 2"/>
<path d="M513.187 2850.01L487.88 2824.06L513.456 2813.77L513.187 2850.01Z" fill="#fa9100" fill-rule="nonzero" opacity="1" stroke="none" vectornator:layerName="Polygon 1"/>
<path d="M498.641 2813.88L487.88 2824.06L513.456 2813.77L498.641 2813.88Z" fill="#fa9100" fill-rule="nonzero" opacity="1" stroke="none" vectornator:layerName="Polygon 2"/>
<path d="M553.769 2807.64L517.52 2807.64L527.999 2782.14L553.769 2807.64Z" fill="#fa9100" fill-rule="nonzero" opacity="1" stroke="none" vectornator:layerName="Polygon 1"/>
<path d="M517.738 2792.83L517.52 2807.64L527.999 2782.14L517.738 2792.83Z" fill="#fa9100" fill-rule="nonzero" opacity="1" stroke="none" vectornator:layerName="Polygon 2"/>
<path d="M555.73 2744.09L530.145 2769.77L519.482 2744.34L555.73 2744.09Z" fill="#fa9100" fill-rule="nonzero" opacity="1" stroke="none" vectornator:layerName="Polygon 1"/>
<path d="M519.807 2759.15L530.145 2769.77L519.482 2744.34L519.807 2759.15Z" fill="#fa9100" fill-rule="nonzero" opacity="1" stroke="none" vectornator:layerName="Polygon 2"/>
<path d="M513.547 2702.97L513.298 2739.22L487.872 2728.56L513.547 2702.97Z" fill="#fa9100" fill-rule="nonzero" opacity="1" stroke="none" vectornator:layerName="Polygon 1"/>
<path d="M498.486 2738.89L513.298 2739.22L487.872 2728.56L498.486 2738.89Z" fill="#fa9100" fill-rule="nonzero" opacity="1" stroke="none" vectornator:layerName="Polygon 2"/>
<path d="M446.701 2701.48L472.039 2727.4L446.476 2737.73L446.701 2701.48Z" fill="#fa9100" fill-rule="nonzero" opacity="1" stroke="none" vectornator:layerName="Polygon 1"/>
<path d="M461.29 2737.6L472.039 2727.4L446.476 2737.73L461.29 2737.6Z" fill="#fa9100" fill-rule="nonzero" opacity="1" stroke="none" vectornator:layerName="Polygon 2"/>
<path d="M406.67 2743.32L442.916 2743.77L432.115 2769.14L406.67 2743.32Z" fill="#fa9100" fill-rule="nonzero" opacity="1" stroke="none" vectornator:layerName="Polygon 1"/>
<path d="M442.51 2758.58L442.916 2743.77L432.115 2769.14L442.51 2758.58Z" fill="#fa9100" fill-rule="nonzero" opacity="1" stroke="none" vectornator:layerName="Polygon 2"/>
<path d="M457.258 2752.35L504.508 2752.35L504.508 2799.6L457.258 2799.6L457.258 2752.35Z" fill="#fa9100" fill-rule="nonzero" opacity="1" stroke="none" vectornator:layerName="Rectangle 17"/>
<path d="M480.811 2739.95L494.995 2752.47L466.635 2752.48L480.811 2739.95Z" fill="#fa9100" fill-rule="nonzero" opacity="1" stroke="none" vectornator:layerName="Polygon 4"/>
<path d="M480.778 2811.92L466.572 2799.43L494.932 2799.37L480.778 2811.92Z" fill="#fa9100" fill-rule="nonzero" opacity="1" stroke="none" vectornator:layerName="Polygon 3"/>
<path d="M444.778 2776.01L457.3 2761.82L457.302 2790.18L444.778 2776.01Z" fill="#fa9100" fill-rule="nonzero" opacity="1" stroke="none" vectornator:layerName="Polygon 1"/>
<path d="M516.892 2776.03L504.433 2790.26L504.306 2761.91L516.892 2776.03Z" fill="#fa9100" fill-rule="nonzero" opacity="1" stroke="none" vectornator:layerName="Polygon 2"/>
<path d="M406.532 2807.83L432.324 2782.36L442.78 2807.87L406.532 2807.83Z" fill="#fa9100" fill-rule="nonzero" opacity="1" stroke="none" vectornator:layerName="Polygon 1"/>
<path d="M442.575 2793.06L432.324 2782.36L442.78 2807.87L442.575 2793.06Z" fill="#fa9100" fill-rule="nonzero" opacity="1" stroke="none" vectornator:layerName="Polygon 2"/>
<path d="M530.275 2690.45L568.075 2690.45L568.075 2728.25L530.275 2728.25L530.275 2690.45Z" fill="#008abe" fill-rule="nonzero" opacity="1" stroke="none" vectornator:layerName="Rectangle 17"/>
<path d="M480.924 2653.77L507.772 2680.38L481.164 2707.23L454.315 2680.62L480.924 2653.77Z" fill="#008abe" fill-rule="nonzero" opacity="1" stroke="none" vectornator:layerName="Rectangle 18"/>
<path d="M480.234 2844.36L507.082 2870.97L480.474 2897.81L453.625 2871.21L480.234 2844.36Z" fill="#008abe" fill-rule="nonzero" opacity="1" stroke="none" vectornator:layerName="Rectangle 22"/>
<path d="M577.048 2748.72L603.896 2775.33L577.288 2802.18L550.439 2775.57L577.048 2748.72Z" fill="#008abe" fill-rule="nonzero" opacity="1" stroke="none" vectornator:layerName="Rectangle 23"/>
<path d="M385.589 2748.49L412.438 2775.1L385.829 2801.95L358.981 2775.34L385.589 2748.49Z" fill="#008abe" fill-rule="nonzero" opacity="1" stroke="none" vectornator:layerName="Rectangle 24"/>
<path d="M530.167 2823.89L567.967 2823.89L567.967 2861.69L530.167 2861.69L530.167 2823.89Z" fill="#008abe" fill-rule="nonzero" opacity="1" stroke="none" vectornator:layerName="Rectangle 19"/>
<path d="M394.664 2823.39L432.464 2823.39L432.464 2861.19L394.664 2861.19L394.664 2823.39Z" fill="#008abe" fill-rule="nonzero" opacity="1" stroke="none" vectornator:layerName="Rectangle 20"/>
<path d="M393.384 2691.03L431.184 2691.03L431.184 2728.83L393.384 2728.83L393.384 2691.03Z" fill="#008abe" fill-rule="nonzero" opacity="1" stroke="none" vectornator:layerName="Rectangle 21"/>
<path d="M481.19 2638.97L467.933 2623.9L494.446 2623.9L481.19 2638.97Z" fill="#fa9100" fill-rule="nonzero" opacity="1" stroke="none" vectornator:layerName="Polygon 1"/>
<path d="M481.19 2638.97L467.933 2623.9L494.446 2623.9L481.19 2638.97Z" fill="#fa9100" fill-rule="nonzero" opacity="1" stroke="none" vectornator:layerName="Polygon 2"/>
<path d="M579.713 2677.88L581.031 2657.84L599.749 2676.62L579.713 2677.88Z" fill="#fa9100" fill-rule="nonzero" opacity="1" stroke="none" vectornator:layerName="Polygon 3"/>
<path d="M617.927 2775.88L632.796 2762.39L633.207 2788.9L617.927 2775.88Z" fill="#fa9100" fill-rule="nonzero" opacity="1" stroke="none" vectornator:layerName="Polygon 4"/>
<path d="M578.635 2873.05L598.677 2874.2L580.052 2893.07L578.635 2873.05Z" fill="#fa9100" fill-rule="nonzero" opacity="1" stroke="none" vectornator:layerName="Polygon 5"/>
<path d="M480.975 2911.19L494.223 2926.27L467.709 2926.26L480.975 2911.19Z" fill="#fa9100" fill-rule="nonzero" opacity="1" stroke="none" vectornator:layerName="Polygon 6"/>
<path d="M383.129 2872.78L381.649 2892.8L363.083 2873.87L383.129 2872.78Z" fill="#fa9100" fill-rule="nonzero" opacity="1" stroke="none" vectornator:layerName="Polygon 7"/>
<path d="M345.776 2775.13L330.534 2788.19L330.869 2761.68L345.776 2775.13Z" fill="#fa9100" fill-rule="nonzero" opacity="1" stroke="none" vectornator:layerName="Polygon 8"/>
<path d="M384.048 2678.78L364.064 2676.86L383.396 2658.71L384.048 2678.78Z" fill="#fa9100" fill-rule="nonzero" opacity="1" stroke="none" vectornator:layerName="Polygon 9"/>
</g>
</g>
</g>
</g>
</svg>
